<?xml version="1.0" encoding="UTF-8" standalone="no"?>
<!-- Created with Inkscape (http://www.inkscape.org/) -->

<!-- 
Created By Andrew Fitzsimon.
Much of this document has been manually cleaned and crafted in a text editor so that only the colour definitions and basic presentation related data remain in the XML. 
Changes to this document may compromise the structure of this palette.
-->

<svg
   xmlns:dc="http://purl.org/dc/elements/1.1/"
   xmlns:cc="http://creativecommons.org/ns#"
   xmlns:rdf="http://www.w3.org/1999/02/22-rdf-syntax-ns#"
   xmlns:svg="http://www.w3.org/2000/svg"
   xmlns="http://www.w3.org/2000/svg"
   xmlns:xlink="http://www.w3.org/1999/xlink"
   xmlns:sodipodi="http://sodipodi.sourceforge.net/DTD/sodipodi-0.dtd"
   xmlns:inkscape="http://www.inkscape.org/namespaces/inkscape"
   version="1.0"
   x="00"
   y="00"
   width="128.35434"
   height="125.63341"
   id="Etiquette"
   sodipodi:version="0.32"
   inkscape:version="0.92.2 5c3e80d, 2017-08-06"
   sodipodi:docname="roxterm.svg">
  <metadata
     id="About">
    <rdf:RDF>
      <cc:Work
         rdf:about="">
        <dc:format>image/svg+xml</dc:format>
        <dc:type
           rdf:resource="http://purl.org/dc/dcmitype/StillImage" />
        <dc:creator>
          <rdf:Bag>
            <rdf:li>Andrew Fitzsimon</rdf:li>
            <rdf:li>Tony Houghton</rdf:li>
          </rdf:Bag>
        </dc:creator>
        <dc:date>2005-12-01</dc:date>
        <dc:title>ROXTerm Icon</dc:title>
        <cc:license
           rdf:resource="http://creativecommons.org/licenses/by/4.0/" />
        <dc:rights>
          <rdf:Bag>
            <rdf:li>Andrew Fitzsimon</rdf:li>
            <rdf:li>Tony Houghton</rdf:li>
          </rdf:Bag>
        </dc:rights>
        <dc:description>Based on Andrew Fitzsimon's Etiquette (2004-12-25)</dc:description>
      </cc:Work>
      <cc:License
         rdf:about="http://creativecommons.org/licenses/by/4.0/">
        <cc:permits
           rdf:resource="http://creativecommons.org/ns#Reproduction" />
        <cc:permits
           rdf:resource="http://creativecommons.org/ns#Distribution" />
        <cc:requires
           rdf:resource="http://creativecommons.org/ns#Notice" />
        <cc:requires
           rdf:resource="http://creativecommons.org/ns#Attribution" />
        <cc:permits
           rdf:resource="http://creativecommons.org/ns#DerivativeWorks" />
      </cc:License>
    </rdf:RDF>
  </metadata>
  <sodipodi:namedview
     id="base"
     pagecolor="#ffffff"
     bordercolor="#666666"
     borderopacity="1.0"
     inkscape:pageopacity="0.0"
     inkscape:pageshadow="0"
     inkscape:zoom="5.6568542"
     inkscape:cx="42.75414"
     inkscape:cy="48.48013"
     inkscape:window-width="2560"
     inkscape:window-height="1317"
     inkscape:window-x="0"
     inkscape:window-y="49"
     inkscape:current-layer="Etiquette"
     showgrid="false"
     inkscape:grid-points="false"
     gridtolerance="40pt"
     showborder="true"
     inkscape:grid-bbox="false"
     fit-margin-top="0"
     fit-margin-left="0"
     fit-margin-right="0"
     fit-margin-bottom="0"
     inkscape:window-maximized="1">
    <inkscape:grid
       id="GridFromPre046Settings"
       type="xygrid"
       originx="-2e-05"
       originy="-0.0001"
       spacingx="10"
       spacingy="10"
       color="#3f3fff"
       empcolor="#3f3fff"
       opacity="0.082352941"
       empopacity="0.082352941"
       empspacing="2" />
  </sodipodi:namedview>
  <defs
     id="Gradients">
    <linearGradient
       id="linearGradient2341">
      <stop
         style="stop-color:#ffffff;stop-opacity:0.15686275;"
         offset="0.0000000"
         id="stop2342" />
      <stop
         style="stop-color:#ffffff;stop-opacity:1.0000000;"
         offset="1.0000000"
         id="stop2343" />
    </linearGradient>
    <linearGradient
       inkscape:collect="always"
       xlink:href="#linearGradient2363"
       id="linearGradient3419"
       gradientUnits="userSpaceOnUse"
       gradientTransform="matrix(0.97891,0,0,0.76533,-4.655562,-10.983355)"
       x1="8.1236315"
       y1="-41.234425"
       x2="81.070526"
       y2="172.11565" />
    <linearGradient
       id="linearGradient2347">
      <stop
         style="stop-color:#ffffff;stop-opacity:0.0000000;"
         offset="0.0000000"
         id="stop2348" />
      <stop
         style="stop-color:#ffffff;stop-opacity:0.47058824;"
         offset="1.0000000"
         id="stop2349" />
    </linearGradient>
    <linearGradient
       inkscape:collect="always"
       xlink:href="#linearGradient2347"
       id="linearGradient3415"
       gradientUnits="userSpaceOnUse"
       gradientTransform="matrix(1.043391,0,0,0.718032,-4.655562,-10.983355)"
       x1="89.69632"
       y1="145.4128"
       x2="89.69632"
       y2="29.382998" />
    <linearGradient
       id="linearGradient2372">
      <stop
         style="stop-color:#000000;stop-opacity:0.47058824;"
         offset="0.0000000"
         id="stop2373" />
      <stop
         style="stop-color:#000000;stop-opacity:0.0000000;"
         offset="1.0000000"
         id="stop2374" />
    </linearGradient>
    <linearGradient
       inkscape:collect="always"
       xlink:href="#linearGradient2372"
       id="linearGradient3413"
       gradientUnits="userSpaceOnUse"
       gradientTransform="matrix(2.138091,0,0,0.549583,-2e-5,-19.798416)"
       x1="23.875151"
       y1="219.55704"
       x2="37.456448"
       y2="226.49693" />
    <linearGradient
       id="linearGradient2363">
      <stop
         style="stop-color:#ffffff;stop-opacity:0.0000000;"
         offset="0.0000000"
         id="stop2364" />
      <stop
         style="stop-color:#ffffff;stop-opacity:1.0000000;"
         offset="1.0000000"
         id="stop2365" />
    </linearGradient>
    <linearGradient
       inkscape:collect="always"
       xlink:href="#linearGradient2363"
       id="linearGradient3412"
       gradientUnits="userSpaceOnUse"
       gradientTransform="matrix(4.740851,0,0,0.158028,-4.655562,-10.983355)"
       x1="7.7594028"
       y1="801.04425"
       x2="21.452467"
       y2="801.04425" />
    <linearGradient
       id="linearGradient3057">
      <stop
         style="stop-color:#000000;stop-opacity:0.19191919;"
         offset="0.0000000"
         id="stop3058" />
      <stop
         style="stop-color:#000000;stop-opacity:0.14141414;"
         offset="0.34210527"
         id="stop3059" />
      <stop
         style="stop-color:#ffffff;stop-opacity:0.0000000;"
         offset="1.0000000"
         id="stop3060" />
    </linearGradient>
    <radialGradient
       inkscape:collect="always"
       xlink:href="#linearGradient3057"
       id="radialGradient3411"
       gradientUnits="userSpaceOnUse"
       gradientTransform="matrix(2.7661513,0,0,0.30979289,-13.31979,-10.375691)"
       cx="28.016161"
       cy="415.83121"
       fx="27.82906"
       fy="401.33081"
       r="23.200882" />
    <linearGradient
       id="linearGradient2386">
      <stop
         style="stop-color:#ffffff;stop-opacity:1.0000000;"
         offset="0.0000000"
         id="stop2387" />
      <stop
         style="stop-color:#46a046;stop-opacity:1.0000000;"
         offset="0.50000000"
         id="stop2414" />
      <stop
         style="stop-color:#267726;stop-opacity:1.0000000;"
         offset="1.0000000"
         id="stop2388" />
    </linearGradient>
    <linearGradient
       id="linearGradient1958">
      <stop
         style="stop-color:#000000;stop-opacity:0.19607843;"
         offset="0.0000000"
         id="stop1959" />
      <stop
         style="stop-color:#000000;stop-opacity:0.0000000;"
         offset="1.0000000"
         id="stop1960" />
    </linearGradient>
    <linearGradient
       id="TransparentWhite">
      <stop
         style="stop-color:#ffffff;stop-opacity:0;"
         offset="0"
         id="stopwhitefull" />
      <stop
         style="stop-color:#ffffff;stop-opacity:1;"
         offset="1"
         id="stopwhitetransparent" />
    </linearGradient>
    <linearGradient
       id="WhiteTransparent">
      <stop
         style="stop-color:#ffffff;stop-opacity:1;"
         offset="0"
         id="stopWhiteFull" />
      <stop
         style="stop-color:#ffffff;stop-opacity:0;"
         offset="1"
         id="stopWhiteTransparent" />
    </linearGradient>
    <linearGradient
       inkscape:collect="always"
       xlink:href="#linearGradient2341"
       id="linearGradient1297"
       gradientUnits="userSpaceOnUse"
       gradientTransform="matrix(1.910124,0,0,0.481661,0.879401,5.5768722)"
       x1="36.73296"
       y1="173.60512"
       x2="37.126789"
       y2="232.27026" />
    <linearGradient
       inkscape:collect="always"
       xlink:href="#TransparentWhite"
       id="linearGradient1935"
       gradientTransform="matrix(1.343102,0,0,0.744545,-2e-5,-2.3664958)"
       x1="13.424465"
       y1="48.322319"
       x2="145.21112"
       y2="42.41489"
       gradientUnits="userSpaceOnUse" />
    <linearGradient
       inkscape:collect="always"
       xlink:href="#WhiteTransparent"
       id="linearGradient1939"
       gradientTransform="matrix(1.128152,0,0,0.886405,-2e-5,-2.3664958)"
       x1="-7.6677785"
       y1="-22.305346"
       x2="108.59772"
       y2="145.62173"
       gradientUnits="userSpaceOnUse" />
    <linearGradient
       inkscape:collect="always"
       xlink:href="#WhiteTransparent"
       id="linearGradient1943"
       gradientTransform="matrix(1.202561,0,0,0.831558,-2e-5,-2.3664958)"
       x1="70.459831"
       y1="87.961166"
       x2="-17.924658"
       y2="-56.903572"
       gradientUnits="userSpaceOnUse" />
    <linearGradient
       inkscape:collect="always"
       xlink:href="#WhiteTransparent"
       id="linearGradient1945"
       gradientUnits="userSpaceOnUse"
       gradientTransform="matrix(1.128152,0,0,0.886405,-2e-5,-2.3664958)"
       x1="119.22096"
       y1="138.05745"
       x2="80.859245"
       y2="69.978905" />
    <linearGradient
       inkscape:collect="always"
       xlink:href="#WhiteTransparent"
       id="linearGradient1954"
       gradientTransform="matrix(1.12626,0,0,0.739153,4.392197,2.8943272)"
       x1="58.872913"
       y1="144.6306"
       x2="56.428001"
       y2="50.783859"
       gradientUnits="userSpaceOnUse" />
    <linearGradient
       inkscape:collect="always"
       xlink:href="#linearGradient2363"
       id="linearGradient68"
       gradientUnits="userSpaceOnUse"
       gradientTransform="matrix(0.97891,0,0,0.76533,-4.655562,-10.983355)"
       x1="8.1236315"
       y1="-41.234425"
       x2="81.070526"
       y2="172.11565" />
  </defs>
  <ellipse
     style="fill:url(#radialGradient3411);fill-opacity:1;stroke:none;stroke-width:3.47140288;stroke-linecap:round;stroke-linejoin:round;stroke-miterlimit:4;stroke-dashoffset:0;stroke-opacity:1"
     id="path3396"
     cx="64.17717"
     cy="118.44593"
     rx="64.17717"
     ry="7.1874723" />
  <path
     style="fill:url(#linearGradient3412);fill-opacity:1;fill-rule:evenodd;stroke:none;stroke-width:1.00000003pt;stroke-linecap:butt;stroke-linejoin:miter;stroke-opacity:1"
     d="m 32.13061,114.52241 v 2.16389 h 64.916775 v -2.16389 z"
     id="path3397"
     sodipodi:nodetypes="ccccc"
     inkscape:connector-curvature="0" />
  <path
     style="fill:#666666;fill-opacity:1;fill-rule:evenodd;stroke:#000000;stroke-width:2.5;stroke-linecap:butt;stroke-linejoin:miter;stroke-miterlimit:4;stroke-dasharray:none;stroke-opacity:1"
     d="m 47.277858,97.211274 v 8.655566 c 0,5.81528 -15.147248,2.84028 -15.147248,8.65557 v 2.16389 h 64.916775 v -2.16389 c 0,-5.81529 -15.147247,-2.84029 -15.147247,-8.65557 v -8.655566 z"
     id="path3398"
     sodipodi:nodetypes="czzcczzcc"
     inkscape:connector-curvature="0" />
  <path
     style="fill:url(#linearGradient1297);fill-opacity:1;fill-rule:evenodd;stroke:none;stroke-width:1.00000003pt;stroke-linecap:butt;stroke-linejoin:miter;stroke-opacity:1"
     d="m 47.51356,98.456414 v 8.073336 c 0,5.42411 -14.941008,2.64922 -14.941008,8.07334 h 64.032891 c 0,-5.42412 -14.941007,-2.64923 -14.941007,-8.07334 v -8.073336 z"
     id="path3410"
     sodipodi:nodetypes="czzzzcc"
     inkscape:connector-curvature="0" />
  <path
     style="opacity:0.67924529;fill:url(#linearGradient3413);fill-opacity:1;fill-rule:evenodd;stroke:none;stroke-width:1.00000003pt;stroke-linecap:butt;stroke-linejoin:miter;stroke-opacity:1"
     d="m 47.277858,97.211274 v 8.899446 c 7.573623,-6.356746 25.96671,-6.356746 34.62228,-2.5427 v -6.356746 z"
     id="path3399"
     sodipodi:nodetypes="ccccc"
     inkscape:connector-curvature="0" />
  <path
     style="fill:none;fill-opacity:1;fill-rule:evenodd;stroke:none;stroke-width:0.86555699pt;stroke-linecap:butt;stroke-linejoin:miter;stroke-opacity:1"
     d="m 79.465758,95.036134 c -10.530946,0 -21.061884,0 -31.59283,0 -0.20834,2.99819 0.416584,8.907886 -0.307221,11.818656 -0.866786,2.79465 -4.35402,2.84838 -6.715727,3.66918 -2.452374,0.71428 -5.208022,1.12498 -7.319349,2.54432 -1.282764,1.16318 -0.544392,1.81222 1.140796,1.64607 l 61.780888,-0.27537 c 0.434189,-2.53941 -1.810001,-2.69721 -4.148987,-2.87803 -3.055477,-0.83666 -6.306795,-1.45235 -9.145173,-2.79268 -2.771989,-1.76212 -1.594234,-5.44578 -1.85906,-8.17502 -0.02091,-0.726536 0.08648,-4.360896 -0.08376,-4.959706 -0.170247,-0.598805 -0.61812,-0.93227 -1.749577,-0.59742 z"
     id="path3400"
     sodipodi:nodetypes="ccccccccccsc"
     inkscape:connector-curvature="0" />
  <path
     style="fill:none;fill-opacity:1;fill-rule:evenodd;stroke:#ffffff;stroke-width:0.86555699pt;stroke-linecap:butt;stroke-linejoin:miter;stroke-opacity:0.1842105"
     d="M 15.901416,13.901409 H 113.27658 V 79.90013 H 15.901416 Z"
     id="path3401"
     sodipodi:nodetypes="ccccc"
     inkscape:connector-curvature="0" />
  <path
     style="fill:#dddddd;fill-opacity:1;fill-rule:evenodd;stroke:#000000;stroke-width:1.25;stroke-linecap:butt;stroke-linejoin:miter;stroke-miterlimit:4;stroke-dasharray:none;stroke-opacity:0.29605264"
     d="M 4.0000075,6.3277852 C 4.0000075,4.2876472 6.2876573,2 8.3277925,2 H 120.8502 c 2.04014,0 4.32779,2.2876472 4.32779,4.3277852 V 92.883485 c 0,2.040135 -2.28765,4.327789 -4.32779,4.327789 H 8.3277925 c -2.0401352,0 -4.327785,-2.287654 -4.327785,-4.327789 z"
     id="path3402"
     sodipodi:nodetypes="czzzzzzzz"
     inkscape:connector-curvature="0" />
  <path
     style="fill:url(#linearGradient3415);fill-opacity:1;fill-rule:evenodd;stroke:#000000;stroke-width:0.86555699pt;stroke-linecap:butt;stroke-linejoin:miter;stroke-opacity:0.33552635"
     d="m 14.81947,12.819462 h 99.53906 V 80.982076 H 14.81947 Z"
     id="path3403"
     sodipodi:nodetypes="ccccc"
     inkscape:connector-curvature="0" />
  <path
     style="fill:url(#linearGradient1939);fill-opacity:1;fill-rule:evenodd;stroke:none;stroke-width:1.00000003pt;stroke-linecap:butt;stroke-linejoin:miter;stroke-opacity:1"
     d="M 4.0000075,6.3277852 C 4.0000075,4.2876472 6.2876573,2 8.3277925,2 H 120.8502 c 2.04014,0 4.32779,2.2876472 4.32779,4.3277852 V 92.883485 c 0,2.040135 -2.28765,4.327789 -4.32779,4.327789 H 8.3277925 c -2.0401352,0 -4.327785,-2.287654 -4.327785,-4.327789 z"
     id="path3404"
     sodipodi:nodetypes="czzzzzzzz"
     inkscape:connector-curvature="0" />
  <path
     style="fill:#314e6c;fill-opacity:0.83552629;fill-rule:evenodd;stroke:#000000;stroke-width:0.86555699pt;stroke-linecap:butt;stroke-linejoin:miter;stroke-opacity:1"
     d="m 14.81947,12.819462 h 99.53906 V 80.982076 H 14.81947 Z"
     id="path3405"
     sodipodi:nodetypes="ccccc"
     inkscape:connector-curvature="0" />
  <path
     style="opacity:1;fill:url(#linearGradient1945);fill-opacity:1;fill-rule:evenodd;stroke:#000000;stroke-width:4;stroke-linecap:butt;stroke-linejoin:miter;stroke-miterlimit:4;stroke-dasharray:none;stroke-opacity:1"
     d="M 4.0000075,6.3277852 C 4.0000075,4.2876472 6.2876573,2 8.3277925,2 H 120.8502 c 2.04014,0 4.32779,2.2876472 4.32779,4.3277852 V 92.883485 c 0,2.040135 -2.28765,4.327789 -4.32779,4.327789 H 8.3277925 c -2.0401352,0 -4.327785,-2.287654 -4.327785,-4.327789 z"
     id="path1944"
     sodipodi:nodetypes="czzzzzzzz"
     inkscape:connector-curvature="0" />
  <path
     style="fill:#000000;fill-opacity:1;fill-rule:evenodd;stroke:#000000;stroke-width:1.00000003pt;stroke-linecap:butt;stroke-linejoin:miter;stroke-opacity:1"
     d="m 14.81947,12.819462 h 99.53906 V 80.982076 H 14.81947 Z"
     id="path3406"
     sodipodi:nodetypes="ccccc"
     inkscape:connector-curvature="0" />
  <path
     style="fill:none;fill-opacity:1;fill-rule:evenodd;stroke:url(#linearGradient1943);stroke-width:3.20772004;stroke-linecap:butt;stroke-linejoin:miter;stroke-miterlimit:4;stroke-opacity:1"
     d="M 14.334715,12.150467 H 114.84328 V 81.651071 H 14.334715 Z"
     id="path3407"
     sodipodi:nodetypes="ccccc"
     inkscape:connector-curvature="0" />
  <path
     style="fill:none;fill-opacity:0.75;fill-rule:evenodd;stroke:url(#linearGradient68);stroke-width:2.16389251;stroke-linecap:butt;stroke-linejoin:miter;stroke-miterlimit:4;stroke-opacity:1"
     d="m 6.1639,8.4916772 c 0,-3.245839 1.0819463,-4.3277847 4.327785,-4.3277847 H 118.68631 c 3.24584,0 4.32779,1.0819457 4.32779,4.3277847 V 90.719592 c 0,3.245839 -1.08195,4.327785 -4.32779,4.327785 H 10.491685 c -3.2458387,0 -4.327785,-1.081946 -4.327785,-4.327785 z"
     id="path3408"
     sodipodi:nodetypes="czzzzzzzz"
     inkscape:connector-curvature="0" />
  <path
     style="fill:url(#linearGradient1935);fill-opacity:1;fill-rule:evenodd;stroke:none;stroke-width:1.00000003pt;stroke-linecap:butt;stroke-linejoin:miter;stroke-opacity:1"
     d="m 14.81947,12.819462 h 99.53906 V 27.96671 C 68.916783,29.048656 35.376449,48.523689 15.901416,67.998721 Z"
     id="path3409"
     sodipodi:nodetypes="ccccc"
     inkscape:connector-curvature="0" />
  <path
     style="fill:url(#linearGradient1954);fill-opacity:1;fill-rule:evenodd;stroke:none;stroke-width:1.00000003pt;stroke-linecap:butt;stroke-linejoin:miter;stroke-opacity:1"
     d="M 19.525826,17.32626 H 109.65218 V 76.475278 H 19.525826 Z"
     id="path1946"
     sodipodi:nodetypes="ccccc"
     inkscape:connector-curvature="0" />
  <path
     style="fill:none;fill-opacity:0.75;fill-rule:evenodd;stroke:none;stroke-width:3.75;stroke-linecap:butt;stroke-linejoin:miter;stroke-miterlimit:4;stroke-opacity:1"
     d="M 104.3019,47.654607 31.961161,10.054401 c -3.548403,-1.8443368 -5.497834,-1.1603358 -4.973466,0.71547 0.524369,1.875807 13.609838,23.334207 13.496752,37.084395 -0.113083,13.75019 -13.790066,41.379342 -14.262199,43.239833 -0.472138,1.860496 1.213911,2.304238 5.334543,0.166564 L 104.25343,53.547546 c 3.87071,-2.008021 4.01237,-3.832643 0.0485,-5.892939 z"
     id="path2493"
     sodipodi:nodetypes="czzzzzzz"
     inkscape:connector-curvature="0" />
  <path
     style="fill:none;fill-opacity:0.75;fill-rule:evenodd;stroke:none;stroke-width:1.25;stroke-linecap:butt;stroke-linejoin:miter;stroke-miterlimit:4;stroke-opacity:1"
     d="M 104.3019,47.654607 31.961161,10.054401 c -3.548403,-1.8443368 -5.497834,-1.1603358 -4.973466,0.71547 0.524369,1.875807 13.609838,23.334207 13.496752,37.084395 -0.113083,13.75019 -13.790066,41.379342 -14.262199,43.239833 -0.472138,1.860496 1.213911,2.304238 5.334543,0.166564 L 104.25343,53.547546 c 3.87071,-2.008021 4.01237,-3.832643 0.0485,-5.892939 z"
     id="path2496"
     sodipodi:nodetypes="czzzzzzz"
     inkscape:connector-curvature="0" />
  <g
     aria-label="$_"
     style="font-style:normal;font-variant:normal;font-weight:bold;font-stretch:normal;line-height:0%;font-family:sans-serif;text-align:start;writing-mode:lr-tb;text-anchor:start;fill:#55a4ff;fill-opacity:1;stroke:#55a4ff;stroke-width:1;stroke-linecap:butt;stroke-linejoin:miter;stroke-miterlimit:4;stroke-dasharray:none;stroke-opacity:1"
     id="text2115">
    <path
       d="m 39.568954,55.144875 h -3.164062 l -0.01953,-5.878907 q -2.441407,-0.09766 -4.726563,-0.546875 -2.285156,-0.449218 -4.453125,-1.25 v -5.117187 q 2.246094,1.152344 4.53125,1.777344 2.304688,0.605468 4.667969,0.683593 v -6.074218 l -0.644531,-0.117188 q -4.667969,-0.820312 -6.640625,-2.578125 -1.953125,-1.757812 -1.953125,-5.058594 0,-3.496093 2.382812,-5.449218 2.402344,-1.972657 6.835938,-2.148438 l 0.01953,-4.511719 h 3.164062 v 4.433594 q 1.953125,0.15625 3.90625,0.488281 1.953125,0.332032 3.925782,0.859375 v 4.960938 Q 45.447861,28.797218 43.494736,28.348 41.541611,27.87925 39.568954,27.781593 v 5.605469 l 0.625,0.117188 q 4.960938,0.78125 6.953125,2.617187 2.011719,1.816406 2.011719,5.390625 0,3.59375 -2.382812,5.527344 -2.382813,1.914062 -7.207032,2.1875 z M 36.404892,32.937843 v -5.097656 q -1.386719,0.07813 -2.226563,0.761719 -0.820312,0.664062 -0.820312,1.699219 0,1.152343 0.761719,1.816406 0.761718,0.644531 2.285156,0.820312 z m 3.164062,6.367188 v 5.429687 q 1.699219,-0.01953 2.539063,-0.664062 0.859375,-0.644531 0.859375,-1.933594 0,-1.328125 -0.78125,-1.972656 -0.78125,-0.664063 -2.617188,-0.859375 z"
       style="font-size:40px;line-height:1.25;font-family:sans-serif"
       id="path70" />
    <path
       d="m 71.854111,54.988625 v 3.710937 h -20 v -3.710937 z"
       style="font-size:40px;line-height:1.25;font-family:sans-serif"
       id="path72" />
  </g>
  <path
     sodipodi:nodetypes="czzzzzzzz"
     id="path2091"
     d="m 6.1639,8.4916772 c 0,-3.245839 1.0819463,-4.3277847 4.327785,-4.3277847 H 118.68631 c 3.24584,0 4.32779,1.0819457 4.32779,4.3277847 V 90.719592 c 0,3.245839 -1.08195,4.327785 -4.32779,4.327785 H 10.491685 c -3.2458387,0 -4.327785,-1.081946 -4.327785,-4.327785 z"
     style="fill:none;fill-opacity:0.75;fill-rule:evenodd;stroke:url(#linearGradient3419);stroke-width:2.16389251;stroke-linecap:butt;stroke-linejoin:miter;stroke-miterlimit:4;stroke-opacity:1"
     inkscape:connector-curvature="0" />
</svg>
