<?xml version="1.0" encoding="UTF-8" standalone="no"?>
<!-- Created with Inkscape (http://www.inkscape.org/) -->

<!-- 
Created By Andrew Fitzsimon.
Much of this document has been manually cleaned and crafted in a text editor so that only the colour definitions and basic presentation related data remain in the XML. 
Changes to this document may compromise the structure of this palette.
-->

<svg
   xmlns:dc="http://purl.org/dc/elements/1.1/"
   xmlns:cc="http://creativecommons.org/ns#"
   xmlns:rdf="http://www.w3.org/1999/02/22-rdf-syntax-ns#"
   xmlns:svg="http://www.w3.org/2000/svg"
   xmlns="http://www.w3.org/2000/svg"
   xmlns:xlink="http://www.w3.org/1999/xlink"
   xmlns:sodipodi="http://sodipodi.sourceforge.net/DTD/sodipodi-0.dtd"
   xmlns:inkscape="http://www.inkscape.org/namespaces/inkscape"
   version="1.0"
   x="00"
   y="00"
   width="128"
   height="128"
   id="Etiquette"
   sodipodi:version="0.32"
   inkscape:version="0.47 r22583"
   sodipodi:docname="roxterm.svg">
  <metadata
     id="About">
    <rdf:RDF>
      <cc:Work
         rdf:about="">
        <dc:format>image/svg+xml</dc:format>
        <dc:type
           rdf:resource="http://purl.org/dc/dcmitype/StillImage" />
        <dc:creator>
          <cc:Agent>
            <dc:title>Andrew Fitzsimon</dc:title>
          </cc:Agent>
        </dc:creator>
        <dc:date>2004-12-25</dc:date>
        <dc:title>Etiquette Icon</dc:title>
        <cc:license
           rdf:resource="http://creativecommons.org/licenses/by/2.0/" />
        <dc:rights>
          <cc:Agent>
            <dc:title>Andrew Fitzsimon</dc:title>
          </cc:Agent>
        </dc:rights>
      </cc:Work>
      <cc:License
         rdf:about="http://creativecommons.org/licenses/by/2.0/">
        <cc:permits
           rdf:resource="http://web.resource.org/cc/Reproduction" />
        <cc:permits
           rdf:resource="http://web.resource.org/cc/Distribution" />
        <cc:requires
           rdf:resource="http://web.resource.org/cc/Notice" />
        <cc:requires
           rdf:resource="http://web.resource.org/cc/Attribution" />
        <cc:prohibits
           rdf:resource="http://web.resource.org/cc/CommercialUse" />
        <cc:permits
           rdf:resource="http://web.resource.org/cc/DerivativeWorks" />
        <cc:requires
           rdf:resource="http://web.resource.org/cc/ShareAlike" />
      </cc:License>
    </rdf:RDF>
  </metadata>
  <sodipodi:namedview
     id="base"
     pagecolor="#ffffff"
     bordercolor="#666666"
     borderopacity="1.0"
     inkscape:pageopacity="0.0"
     inkscape:pageshadow="0"
     inkscape:zoom="5.0261024"
     inkscape:cx="23.788041"
     inkscape:cy="60.49155"
     inkscape:window-width="1920"
     inkscape:window-height="1150"
     inkscape:window-x="0"
     inkscape:window-y="0"
     inkscape:current-layer="Etiquette"
     showgrid="true"
     inkscape:grid-points="false"
     gridtolerance="40pt"
     showborder="true"
     inkscape:grid-bbox="false"
     inkscape:window-maximized="1">
    <inkscape:grid
       id="GridFromPre046Settings"
       type="xygrid"
       originx="0px"
       originy="0.0000000pt"
       spacingx="2px"
       spacingy="2px"
       color="#3f3fff"
       empcolor="#3f3fff"
       opacity="0.082352941"
       empopacity="0.082352941"
       empspacing="2"
       units="px"
       visible="true"
       enabled="true"
       snapvisiblegridlinesonly="true"
       dotted="false" />
    <inkscape:grid
       type="xygrid"
       id="grid2874"
       empspacing="5"
       visible="true"
       enabled="true"
       snapvisiblegridlinesonly="true" />
  </sodipodi:namedview>
  <defs
     id="Gradients">
    <inkscape:perspective
       sodipodi:type="inkscape:persp3d"
       inkscape:vp_x="0 : 64 : 1"
       inkscape:vp_y="0 : 1000 : 0"
       inkscape:vp_z="128 : 64 : 1"
       inkscape:persp3d-origin="64 : 42.666667 : 1"
       id="perspective68" />
    <linearGradient
       id="linearGradient2341">
      <stop
         style="stop-color:#ffffff;stop-opacity:0.15686275;"
         offset="0.0000000"
         id="stop2342" />
      <stop
         style="stop-color:#ffffff;stop-opacity:1.0000000;"
         offset="1.0000000"
         id="stop2343" />
    </linearGradient>
    <linearGradient
       inkscape:collect="always"
       xlink:href="#linearGradient2363"
       id="linearGradient3419"
       gradientUnits="userSpaceOnUse"
       gradientTransform="matrix(0.97891,0,0,0.76533,-4.655542,-4.616859)"
       x1="8.1236319"
       y1="-41.234426"
       x2="81.070528"
       y2="172.11564" />
    <linearGradient
       id="linearGradient2347">
      <stop
         style="stop-color:#ffffff;stop-opacity:0.0000000;"
         offset="0.0000000"
         id="stop2348" />
      <stop
         style="stop-color:#ffffff;stop-opacity:0.47058824;"
         offset="1.0000000"
         id="stop2349" />
    </linearGradient>
    <linearGradient
       inkscape:collect="always"
       xlink:href="#linearGradient2347"
       id="linearGradient3415"
       gradientUnits="userSpaceOnUse"
       gradientTransform="matrix(1.043391,0,0,0.718032,-4.655542,-4.616859)"
       x1="89.696322"
       y1="145.41280"
       x2="89.696322"
       y2="29.382998" />
    <linearGradient
       id="linearGradient2372">
      <stop
         style="stop-color:#000000;stop-opacity:0.47058824;"
         offset="0.0000000"
         id="stop2373" />
      <stop
         style="stop-color:#000000;stop-opacity:0.0000000;"
         offset="1.0000000"
         id="stop2374" />
    </linearGradient>
    <linearGradient
       inkscape:collect="always"
       xlink:href="#linearGradient2372"
       id="linearGradient3413"
       gradientUnits="userSpaceOnUse"
       gradientTransform="matrix(2.138091,0,0,0.549583,0,-13.43192)"
       x1="23.875151"
       y1="219.55704"
       x2="37.456448"
       y2="226.49693" />
    <linearGradient
       id="linearGradient2363">
      <stop
         style="stop-color:#ffffff;stop-opacity:0.0000000;"
         offset="0.0000000"
         id="stop2364" />
      <stop
         style="stop-color:#ffffff;stop-opacity:1.0000000;"
         offset="1.0000000"
         id="stop2365" />
    </linearGradient>
    <linearGradient
       inkscape:collect="always"
       xlink:href="#linearGradient2363"
       id="linearGradient3412"
       gradientUnits="userSpaceOnUse"
       gradientTransform="matrix(4.740851,0,0,0.158028,-4.655542,-4.616859)"
       x1="7.7594029"
       y1="801.04424"
       x2="21.452467"
       y2="801.04424" />
    <linearGradient
       id="linearGradient3057">
      <stop
         style="stop-color:#000000;stop-opacity:0.19191919;"
         offset="0.0000000"
         id="stop3058" />
      <stop
         style="stop-color:#000000;stop-opacity:0.14141414;"
         offset="0.34210527"
         id="stop3059" />
      <stop
         style="stop-color:#ffffff;stop-opacity:0.0000000;"
         offset="1.0000000"
         id="stop3060" />
    </linearGradient>
    <radialGradient
       inkscape:collect="always"
       xlink:href="#linearGradient3057"
       id="radialGradient3411"
       gradientUnits="userSpaceOnUse"
       gradientTransform="scale(2.855494,0.350202)"
       cx="28.016161"
       cy="415.83121"
       fx="27.829060"
       fy="401.33081"
       r="23.200882" />
    <linearGradient
       id="linearGradient2386">
      <stop
         style="stop-color:#ffffff;stop-opacity:1.0000000;"
         offset="0.0000000"
         id="stop2387" />
      <stop
         style="stop-color:#46a046;stop-opacity:1.0000000;"
         offset="0.50000000"
         id="stop2414" />
      <stop
         style="stop-color:#267726;stop-opacity:1.0000000;"
         offset="1.0000000"
         id="stop2388" />
    </linearGradient>
    <linearGradient
       id="linearGradient1958">
      <stop
         style="stop-color:#000000;stop-opacity:0.19607843;"
         offset="0.0000000"
         id="stop1959" />
      <stop
         style="stop-color:#000000;stop-opacity:0.0000000;"
         offset="1.0000000"
         id="stop1960" />
    </linearGradient>
    <linearGradient
       id="TransparentWhite">
      <stop
         style="stop-color:#ffffff;stop-opacity:0;"
         offset="0"
         id="stopwhitefull" />
      <stop
         style="stop-color:#ffffff;stop-opacity:1;"
         offset="1"
         id="stopwhitetransparent" />
    </linearGradient>
    <linearGradient
       id="WhiteTransparent">
      <stop
         style="stop-color:#ffffff;stop-opacity:1;"
         offset="0"
         id="stopWhiteFull" />
      <stop
         style="stop-color:#ffffff;stop-opacity:0;"
         offset="1"
         id="stopWhiteTransparent" />
    </linearGradient>
    <linearGradient
       inkscape:collect="always"
       xlink:href="#linearGradient2341"
       id="linearGradient1297"
       gradientUnits="userSpaceOnUse"
       gradientTransform="matrix(1.910124,0,0,0.481661,0.879421,11.943368)"
       x1="36.732960"
       y1="173.60512"
       x2="37.126789"
       y2="232.27026" />
    <linearGradient
       inkscape:collect="always"
       xlink:href="#TransparentWhite"
       id="linearGradient1935"
       gradientTransform="matrix(1.343102,0,0,0.744545,0,4)"
       x1="13.424465"
       y1="48.322319"
       x2="145.21112"
       y2="42.414890"
       gradientUnits="userSpaceOnUse" />
    <linearGradient
       inkscape:collect="always"
       xlink:href="#WhiteTransparent"
       id="linearGradient1939"
       gradientTransform="matrix(1.128152,0,0,0.886405,0,4)"
       x1="-7.6677785"
       y1="-22.305346"
       x2="108.59772"
       y2="145.62173"
       gradientUnits="userSpaceOnUse" />
    <linearGradient
       inkscape:collect="always"
       xlink:href="#WhiteTransparent"
       id="linearGradient1943"
       gradientTransform="matrix(1.202561,0,0,0.831558,0,4)"
       x1="70.459831"
       y1="87.961166"
       x2="-17.924658"
       y2="-56.903572"
       gradientUnits="userSpaceOnUse" />
    <linearGradient
       inkscape:collect="always"
       xlink:href="#WhiteTransparent"
       id="linearGradient1945"
       gradientUnits="userSpaceOnUse"
       gradientTransform="matrix(1.128152,0,0,0.886405,0,4)"
       x1="119.22096"
       y1="138.05745"
       x2="80.859245"
       y2="69.978905" />
    <linearGradient
       inkscape:collect="always"
       xlink:href="#WhiteTransparent"
       id="linearGradient1954"
       gradientTransform="matrix(1.12626,0,0,0.739153,4.392217,9.260823)"
       x1="58.872913"
       y1="144.63060"
       x2="56.428001"
       y2="50.783859"
       gradientUnits="userSpaceOnUse" />
    <linearGradient
       inkscape:collect="always"
       xlink:href="#linearGradient2363"
       id="linearGradient2878"
       gradientUnits="userSpaceOnUse"
       gradientTransform="matrix(0.97891,0,0,0.76533,-4.655542,-4.616859)"
       x1="8.1236319"
       y1="-41.234426"
       x2="81.070528"
       y2="172.11564" />
  </defs>
  <path
     sodipodi:type="arc"
     style="fill:url(#radialGradient3411);fill-opacity:1;stroke:none"
     id="path3396"
     sodipodi:cx="80"
     sodipodi:cy="145.625"
     sodipodi:rx="66.25"
     sodipodi:ry="8.125"
     d="m 146.25,145.625 a 66.25,8.125 0 1 1 -132.5,0 66.25,8.125 0 1 1 132.5,0 z"
     transform="matrix(0.968712,0,0,0.884612,-13.31977,-4.009195)" />
  <path
     style="fill:url(#linearGradient3412);fill-opacity:1;fill-rule:evenodd;stroke:none"
     d="m 32.13063,120.88891 0,2.16389 64.916775,0 0,-2.16389 -64.916775,0 z"
     id="path3397"
     sodipodi:nodetypes="ccccc" />
  <path
     style="fill:#666666;fill-opacity:1;fill-rule:evenodd;stroke:#000000;stroke-width:2.5;stroke-linecap:butt;stroke-linejoin:miter;stroke-miterlimit:4;stroke-opacity:1;stroke-dasharray:none"
     d="m 47.277878,103.57777 0,8.65557 c 0,5.81528 -15.147248,2.84028 -15.147248,8.65557 l 0,2.16389 64.916775,0 0,-2.16389 c 0,-5.81529 -15.147247,-2.84029 -15.147247,-8.65557 l 0,-8.65557 -34.62228,0 z"
     id="path3398"
     sodipodi:nodetypes="czzcczzcc" />
  <path
     style="fill:url(#linearGradient1297);fill-opacity:1;fill-rule:evenodd;stroke:none"
     d="m 47.51358,104.82291 0,8.07334 c 0,5.42411 -14.941008,2.64922 -14.941008,8.07334 l 64.032891,0 c 0,-5.42412 -14.941007,-2.64923 -14.941007,-8.07334 l 0,-8.07334 -34.150876,0 z"
     id="path3410"
     sodipodi:nodetypes="czzzzcc" />
  <path
     style="opacity:0.67924529;fill:url(#linearGradient3413);fill-opacity:1;fill-rule:evenodd;stroke:none"
     d="m 47.277878,103.57777 0,8.89945 c 7.573623,-6.35675 25.96671,-6.35675 34.62228,-2.5427 l 0,-6.35675 -34.62228,0 z"
     id="path3399"
     sodipodi:nodetypes="ccccc" />
  <path
     style="fill:none;stroke:none"
     d="m 79.465778,101.40263 c -10.530946,0 -21.061884,0 -31.59283,0 -0.20834,2.99819 0.416584,8.90789 -0.307221,11.81866 -0.866786,2.79465 -4.35402,2.84838 -6.715727,3.66918 -2.452374,0.71428 -5.208022,1.12498 -7.319349,2.54432 -1.282764,1.16318 -0.544392,1.81222 1.140796,1.64607 l 61.780888,-0.27537 c 0.434189,-2.53941 -1.810001,-2.69721 -4.148987,-2.87803 -3.055477,-0.83666 -6.306795,-1.45235 -9.145173,-2.79268 -2.771989,-1.76212 -1.594234,-5.44578 -1.85906,-8.17502 -0.02091,-0.72654 0.08648,-4.3609 -0.08376,-4.95971 -0.170247,-0.59881 -0.61812,-0.93227 -1.749577,-0.59742 z"
     id="path3400"
     sodipodi:nodetypes="ccccccccccsc" />
  <path
     style="fill:none;stroke:#ffffff;stroke-width:0.865557pt;stroke-linecap:butt;stroke-linejoin:miter;stroke-opacity:0.1842105"
     d="m 15.901436,20.267905 97.375164,0 0,65.998721 -97.375164,0 0,-65.998721 z"
     id="path3401"
     sodipodi:nodetypes="ccccc" />
  <path
     style="fill:#dddddd;fill-opacity:1;fill-rule:evenodd;stroke:#000000;stroke-width:1.25;stroke-linecap:butt;stroke-linejoin:miter;stroke-miterlimit:4;stroke-opacity:0.29605264;stroke-dasharray:none"
     d="m 4.0000275,12.694281 c 0,-2.040138 2.2876498,-4.3277852 4.327785,-4.3277852 l 112.5224075,0 c 2.04014,0 4.32779,2.2876472 4.32779,4.3277852 l 0,86.5557 c 0,2.040139 -2.28765,4.327789 -4.32779,4.327789 l -112.5224075,0 c -2.0401352,0 -4.327785,-2.28765 -4.327785,-4.327789 l 0,-86.5557 z"
     id="path3402"
     sodipodi:nodetypes="czzzzzzzz" />
  <path
     style="fill:url(#linearGradient3415);fill-opacity:1;fill-rule:evenodd;stroke:#000000;stroke-width:0.865557pt;stroke-linecap:butt;stroke-linejoin:miter;stroke-opacity:0.33552635"
     d="m 14.81949,19.185958 99.53906,0 0,68.162614 -99.53906,0 0,-68.162614 z"
     id="path3403"
     sodipodi:nodetypes="ccccc" />
  <path
     style="fill:url(#linearGradient1939);fill-opacity:1;fill-rule:evenodd;stroke:none"
     d="m 4.0000275,12.694281 c 0,-2.040138 2.2876498,-4.3277852 4.327785,-4.3277852 l 112.5224075,0 c 2.04014,0 4.32779,2.2876472 4.32779,4.3277852 l 0,86.5557 c 0,2.040139 -2.28765,4.327789 -4.32779,4.327789 l -112.5224075,0 c -2.0401352,0 -4.327785,-2.28765 -4.327785,-4.327789 l 0,-86.5557 z"
     id="path3404"
     sodipodi:nodetypes="czzzzzzzz" />
  <path
     style="fill:#314e6c;fill-opacity:0.83552629;fill-rule:evenodd;stroke:#000000;stroke-width:0.865557pt;stroke-linecap:butt;stroke-linejoin:miter;stroke-opacity:1"
     d="m 14.81949,19.185958 99.53906,0 0,68.162614 -99.53906,0 0,-68.162614 z"
     id="path3405"
     sodipodi:nodetypes="ccccc" />
  <path
     style="fill:url(#linearGradient1945);fill-opacity:1;fill-rule:evenodd;stroke:#000000;stroke-width:4;stroke-linecap:butt;stroke-linejoin:miter;stroke-miterlimit:4;stroke-opacity:1;stroke-dasharray:none"
     d="m 4.0000275,12.694281 c 0,-2.040138 2.2876498,-4.3277852 4.327785,-4.3277852 l 112.5224075,0 c 2.04014,0 4.32779,2.2876472 4.32779,4.3277852 l 0,86.5557 c 0,2.040139 -2.28765,4.327789 -4.32779,4.327789 l -112.5224075,0 c -2.0401352,0 -4.327785,-2.28765 -4.327785,-4.327789 l 0,-86.5557 z"
     id="path1944"
     sodipodi:nodetypes="czzzzzzzz" />
  <path
     style="fill:#000000;fill-opacity:1;fill-rule:evenodd;stroke:#000000;stroke-width:1pt;stroke-linecap:butt;stroke-linejoin:miter;stroke-opacity:1"
     d="m 14.81949,19.185958 99.53906,0 0,68.162614 -99.53906,0 0,-68.162614 z"
     id="path3406"
     sodipodi:nodetypes="ccccc" />
  <path
     style="fill:none;stroke:url(#linearGradient1943);stroke-width:3.20772004;stroke-linecap:butt;stroke-linejoin:miter;stroke-miterlimit:4;stroke-opacity:1"
     d="m 14.334735,18.516963 100.508565,0 0,69.500604 -100.508565,0 0,-69.500604 z"
     id="path3407"
     sodipodi:nodetypes="ccccc" />
  <path
     style="fill:none;stroke:url(#linearGradient2878);stroke-width:2.16389251;stroke-linecap:butt;stroke-linejoin:miter;stroke-miterlimit:4;stroke-opacity:1"
     d="m 6.16392,14.858173 c 0,-3.245839 1.0819463,-4.327785 4.327785,-4.327785 l 108.194625,0 c 3.24584,0 4.32779,1.081946 4.32779,4.327785 l 0,82.227915 c 0,3.245842 -1.08195,4.327782 -4.32779,4.327782 l -108.194625,0 c -3.2458387,0 -4.327785,-1.08194 -4.327785,-4.327782 l 0,-82.227915 z"
     id="path3408"
     sodipodi:nodetypes="czzzzzzzz" />
  <text
     xml:space="preserve"
     style="font-size:40px;font-style:normal;font-variant:normal;font-weight:bold;font-stretch:normal;text-align:start;line-height:125%;writing-mode:lr-tb;text-anchor:start;fill:#55a5ff;fill-opacity:1;stroke:#55a4ff;stroke-width:1;stroke-linecap:butt;stroke-linejoin:miter;stroke-miterlimit:4;stroke-opacity:1;stroke-dasharray:none;font-family:Sans"
     x="24.04163"
     y="55.632465"
     id="text2115"
     sodipodi:linespacing="125%"><tspan
       sodipodi:role="line"
       id="tspan2117"
       x="24.04163"
       y="55.632465">$_</tspan></text>
  <path
     style="fill:url(#linearGradient1935);fill-opacity:1;fill-rule:evenodd;stroke:none"
     d="m 14.81949,19.185958 99.53906,0 0,15.147248 C 68.916803,35.415152 35.376469,54.890185 15.901436,74.365217 L 14.81949,19.185958 z"
     id="path3409"
     sodipodi:nodetypes="ccccc" />
  <path
     style="fill:url(#linearGradient1954);fill-opacity:1;fill-rule:evenodd;stroke:none"
     d="m 19.525846,23.692756 90.126354,0 0,59.149018 -90.126354,0 0,-59.149018 z"
     id="path1946"
     sodipodi:nodetypes="ccccc" />
  <path
     style="fill:none;stroke:none"
     d="M 104.30192,54.021103 31.961181,16.420897 c -3.548403,-1.844337 -5.497834,-1.160336 -4.973466,0.71547 0.524369,1.875807 13.609838,23.334207 13.496752,37.084395 -0.113083,13.75019 -13.790066,41.379342 -14.262199,43.239833 -0.472138,1.860496 1.213911,2.304238 5.334543,0.166564 L 104.25345,59.914042 c 3.87071,-2.008021 4.01237,-3.832643 0.0485,-5.892939 z"
     id="path2493"
     sodipodi:nodetypes="czzzzzzz" />
  <path
     style="fill:none;stroke:none"
     d="M 104.30192,54.021103 31.961181,16.420897 c -3.548403,-1.844337 -5.497834,-1.160336 -4.973466,0.71547 0.524369,1.875807 13.609838,23.334207 13.496752,37.084395 -0.113083,13.75019 -13.790066,41.379342 -14.262199,43.239833 -0.472138,1.860496 1.213911,2.304238 5.334543,0.166564 L 104.25345,59.914042 c 3.87071,-2.008021 4.01237,-3.832643 0.0485,-5.892939 z"
     id="path2496"
     sodipodi:nodetypes="czzzzzzz" />
  <path
     sodipodi:nodetypes="czzzzzzzz"
     id="path2091"
     d="m 6.16392,14.858173 c 0,-3.245839 1.0819463,-4.327785 4.327785,-4.327785 l 108.194625,0 c 3.24584,0 4.32779,1.081946 4.32779,4.327785 l 0,82.227915 c 0,3.245842 -1.08195,4.327782 -4.32779,4.327782 l -108.194625,0 c -3.2458387,0 -4.327785,-1.08194 -4.327785,-4.327782 l 0,-82.227915 z"
     style="fill:none;stroke:url(#linearGradient3419);stroke-width:2.16389251;stroke-linecap:butt;stroke-linejoin:miter;stroke-miterlimit:4;stroke-opacity:1" />
</svg>
