<?xml version="1.0" standalone="no"?><!-- Generator: Gravit.io --><svg xmlns="http://www.w3.org/2000/svg" xmlns:xlink="http://www.w3.org/1999/xlink" style="isolation:isolate" viewBox="0 0 256 256" width="256" height="256"><defs><clipPath id="_clipPath_5pIpBvbJQDQhO5A0Lgo3SIWl1vycJcIy"><rect width="256" height="256"/></clipPath></defs><g clip-path="url(#_clipPath_5pIpBvbJQDQhO5A0Lgo3SIWl1vycJcIy)"><defs><filter id="1l5p47SUtTO36pCodx7QbE50f4DjPM3l" x="-200%" y="-200%" width="400%" height="400%" filterUnits="objectBoundingBox" color-interpolation-filters="sRGB"><feGaussianBlur xmlns="http://www.w3.org/2000/svg" in="SourceGraphic" stdDeviation="3.4348872502712227"/><feOffset xmlns="http://www.w3.org/2000/svg" dx="8" dy="16" result="pf_100_offsetBlur"/><feFlood xmlns="http://www.w3.org/2000/svg" flood-color="#000000" flood-opacity="0.4"/><feComposite xmlns="http://www.w3.org/2000/svg" in2="pf_100_offsetBlur" operator="in" result="pf_100_dropShadow"/><feBlend xmlns="http://www.w3.org/2000/svg" in="SourceGraphic" in2="pf_100_dropShadow" mode="normal"/></filter></defs><g filter="url(#1l5p47SUtTO36pCodx7QbE50f4DjPM3l)"><path d="M 20 16 L 228 16 C 234.623 16 240 21.377 240 28 L 240 212 C 240 218.623 234.623 224 228 224 L 20 224 C 13.377 224 8 218.623 8 212 L 8 28 C 8 21.377 13.377 16 20 16 Z" style="stroke:none;fill:#404040;stroke-miterlimit:10;"/><path d="M 20 16 L 228 16 C 234.623 16 240 21.377 240 28 L 240 212 C 240 218.623 234.623 224 228 224 L 20 224 C 13.377 224 8 218.623 8 212 L 8 28 C 8 21.377 13.377 16 20 16 Z" style="fill:none;stroke:#000000;stroke-width:4;stroke-linecap:square;stroke-miterlimit:2;"/></g><rect x="48" y="57.188" width="24" height="38.813" transform="matrix(1,0,0,1,0,0)" fill="rgb(255,153,0)"/><g transform="matrix(1,0,0,1,16,50.375)"><text transform="matrix(1,0,0,1,0,43.453)" style="font-family:'Arial';font-weight:700;font-size:48px;font-style:normal;fill:#ffffff;stroke:none;">$</text></g><path d=" M 228 16 C 234.623 16 240 21.377 240 28 L 240 48 L 8 48 L 8 28 L 8 28 C 8 21.377 13.377 16 20 16 L 228 16 Z " fill-rule="evenodd" fill="rgb(208,208,208)" vector-effect="non-scaling-stroke" stroke-width="4" stroke="rgb(0,0,0)" stroke-linejoin="miter" stroke-linecap="square" stroke-miterlimit="3"/></g></svg>