<?xml version="1.0" encoding="UTF-8" standalone="no"?>
<svg
   xmlns:dc="http://purl.org/dc/elements/1.1/"
   xmlns:cc="http://creativecommons.org/ns#"
   xmlns:rdf="http://www.w3.org/1999/02/22-rdf-syntax-ns#"
   xmlns:svg="http://www.w3.org/2000/svg"
   xmlns="http://www.w3.org/2000/svg"
   xmlns:xlink="http://www.w3.org/1999/xlink"
   xmlns:sodipodi="http://sodipodi.sourceforge.net/DTD/sodipodi-0.dtd"
   xmlns:inkscape="http://www.inkscape.org/namespaces/inkscape"
   version="1.1"
   preserveAspectRatio="xMidYMid meet"
   viewBox="0 0 639.99997 640"
   width="127.99999"
   height="127.99999"
   id="svg253"
   sodipodi:docname="roxterm.svg"
   inkscape:version="0.92.2 2405546, 2018-03-11">
  <metadata
     id="metadata257">
    <rdf:RDF>
      <cc:Work
         rdf:about="">
        <dc:format>image/svg+xml</dc:format>
        <dc:type
           rdf:resource="http://purl.org/dc/dcmitype/StillImage" />
        <dc:title />
      </cc:Work>
    </rdf:RDF>
  </metadata>
  <sodipodi:namedview
     pagecolor="#ffffff"
     bordercolor="#666666"
     borderopacity="1"
     objecttolerance="10"
     gridtolerance="10"
     guidetolerance="10"
     inkscape:pageopacity="0"
     inkscape:pageshadow="2"
     inkscape:window-width="2487"
     inkscape:window-height="1295"
     id="namedview255"
     showgrid="false"
     fit-margin-top="0"
     fit-margin-left="0"
     fit-margin-right="0"
     fit-margin-bottom="0"
     inkscape:zoom="3.6875"
     inkscape:cx="37.28812"
     inkscape:cy="27.012152"
     inkscape:window-x="0"
     inkscape:window-y="49"
     inkscape:window-maximized="0"
     inkscape:current-layer="svg253" />
  <defs
     id="defs71">
    <linearGradient
       inkscape:collect="always"
       id="linearGradient2134">
      <stop
         style="stop-color:#000000;stop-opacity:1;"
         offset="0"
         id="stop2130" />
      <stop
         style="stop-color:#000000;stop-opacity:0;"
         offset="1"
         id="stop2132" />
    </linearGradient>
    <path
       d="m 132.89,122.56 c 0,4.11 -29.75,7.44 -66.45,7.44 C 29.75,130 0,126.67 0,122.56 c 0,-4.11 29.75,-7.44 66.44,-7.44 36.7,0 66.45,3.33 66.45,7.44 z"
       id="a5e2LuvcG"
       inkscape:connector-curvature="0" />
    <radialGradient
       id="gradienta22eWXMZW"
       gradientUnits="userSpaceOnUse"
       cx="65.910004"
       cy="117.91"
       r="4.6799998">
      <stop
         style="stop-color: #000000;stop-opacity: 0.19191919"
         offset="0%"
         id="stop3" />
      <stop
         style="stop-color: #000000;stop-opacity: 0.14141414"
         offset="34.210527%"
         id="stop5" />
      <stop
         style="stop-color: #ffffff;stop-opacity: 0"
         offset="100%"
         id="stop7" />
    </radialGradient>
    <path
       d="m 33.27,118.5 v 2.24 h 67.21 v -2.24 z"
       id="bkEGUvrKb"
       inkscape:connector-curvature="0" />
    <linearGradient
       id="gradientapOm38mXm"
       gradientUnits="userSpaceOnUse"
       x1="33.27"
       y1="119.62"
       x2="100.48"
       y2="119.62">
      <stop
         style="stop-color: #ffffff;stop-opacity: 0"
         offset="0%"
         id="stop11" />
      <stop
         style="stop-color: #ffffff;stop-opacity: 1"
         offset="100%"
         id="stop13" />
    </linearGradient>
    <path
       d="m 48.95,100.57 c 0,5.38 0,8.37 0,8.97 0,6.02 -15.68,2.94 -15.68,8.96 0,0.15 0,0.89 0,2.24 h 67.21 c 0,-1.35 0,-2.09 0,-2.24 0,-6.02 -15.69,-2.94 -15.69,-8.96 0,-0.6 0,-3.59 0,-8.97 z"
       id="c1zZ2Sf0Hi"
       inkscape:connector-curvature="0" />
    <path
       d="m 49.19,101.86 c 0,5.02 0,7.8 0,8.36 0,5.62 -15.47,2.74 -15.47,8.36 6.63,0 59.67,0 66.3,0 0,-5.62 -15.47,-2.74 -15.47,-8.36 0,-0.56 0,-3.34 0,-8.36 z"
       id="b1P55uX7H9"
       inkscape:connector-curvature="0" />
    <linearGradient
       id="gradientb4xZ3cPKS4"
       gradientUnits="userSpaceOnUse"
       x1="73.550003"
       y1="92.279999"
       x2="74.330002"
       y2="121.53">
      <stop
         style="stop-color: #ffffff;stop-opacity: 0.15686275"
         offset="0%"
         id="stop18" />
      <stop
         style="stop-color: #ffffff;stop-opacity: 1"
         offset="100%"
         id="stop20" />
    </linearGradient>
    <path
       d="m 48.95,100.57 c 0,5.53 0,8.6 0,9.22 7.84,-6.58 26.88,-6.58 35.84,-2.63 0,-0.44 0,-2.64 0,-6.59 z"
       id="c5iacGxfzN"
       inkscape:connector-curvature="0" />
    <linearGradient
       id="gradientaaqJx69w7"
       gradientUnits="userSpaceOnUse"
       x1="52.849998"
       y1="104.36"
       x2="82.919998"
       y2="108.31">
      <stop
         style="stop-color: #000000;stop-opacity: 0.47058824"
         offset="0%"
         id="stop24" />
      <stop
         style="stop-color: #000000;stop-opacity: 0"
         offset="100%"
         id="stop26" />
    </linearGradient>
    <path
       d="m 49.56,98.32 c -0.21,3.11 0.44,9.22 -0.31,12.24 -0.9,2.89 -4.51,2.95 -6.96,3.8 -2.54,0.74 -5.39,1.16 -7.57,2.63 -1.33,1.21 -0.57,1.88 1.18,1.71 6.39,-0.03 57.56,-0.26 63.96,-0.29 0.45,-2.63 -1.87,-2.79 -4.29,-2.98 -3.17,-0.87 -6.53,-1.5 -9.47,-2.89 -2.87,-1.83 -1.65,-5.64 -1.93,-8.46 -0.02,-0.76 0.09,-4.52 -0.08,-5.14 -0.18,-0.62 -0.64,-0.96 -1.82,-0.62 -10.9,0 -21.8,0 -32.71,0 z"
       id="a1aYRAV4Rx"
       inkscape:connector-curvature="0" />
    <path
       d="M 16.46,14.32 H 117.28 V 82.65 H 16.46 Z"
       id="hayWWTR2Z"
       inkscape:connector-curvature="0" />
    <path
       d="M 4.14,6.48 C 4.14,4.37 6.51,2 8.62,2 c 11.65,0 104.85,0 116.5,0 2.11,0 4.48,2.37 4.48,4.48 0,8.96 0,80.65 0,89.61 0,2.12 -2.37,4.48 -4.48,4.48 -11.65,0 -104.85,0 -116.5,0 -2.11,0 -4.48,-2.36 -4.48,-4.48 0,-17.92 0,-71.69 0,-89.61 z"
       id="a2am4x5nNL"
       inkscape:connector-curvature="0" />
    <path
       d="M 15.34,13.2 H 118.4 V 83.77 H 15.34 Z"
       id="e4rSHiEVzX"
       inkscape:connector-curvature="0" />
    <linearGradient
       id="gradientb1mOwlRY6s"
       gradientUnits="userSpaceOnUse"
       x1="92.080002"
       y1="96.660004"
       x2="92.080002"
       y2="10.4">
      <stop
         style="stop-color: #ffffff;stop-opacity: 0"
         offset="0%"
         id="stop33" />
      <stop
         style="stop-color: #ffffff;stop-opacity: 0.47058824"
         offset="100%"
         id="stop35" />
    </linearGradient>
    <path
       d="M 4.14,6.48 C 4.14,4.37 6.51,2 8.62,2 c 11.65,0 104.85,0 116.5,0 2.11,0 4.48,2.37 4.48,4.48 0,8.96 0,80.65 0,89.61 0,2.12 -2.37,4.48 -4.48,4.48 -11.65,0 -104.85,0 -116.5,0 -2.11,0 -4.48,-2.36 -4.48,-4.48 0,-17.92 0,-71.69 0,-89.61 z"
       id="a2y24qgrvU"
       inkscape:connector-curvature="0" />
    <linearGradient
       id="gradientg6Swyrb7T2"
       gradientUnits="userSpaceOnUse"
       x1="-8.96"
       y1="-22.99"
       x2="126.84"
       y2="131.12">
      <stop
         style="stop-color: #ffffff;stop-opacity: 1"
         offset="0%"
         id="stop39" />
      <stop
         style="stop-color: #ffffff;stop-opacity: 0"
         offset="100%"
         id="stop41" />
    </linearGradient>
    <path
       d="M 15.34,13.2 H 118.4 V 83.77 H 15.34 Z"
       id="c2bleBh05"
       inkscape:connector-curvature="0" />
    <path
       d="M 4.14,6.48 C 4.14,4.37 6.51,2 8.62,2 c 11.65,0 104.85,0 116.5,0 2.11,0 4.48,2.37 4.48,4.48 0,8.96 0,80.65 0,89.61 0,2.12 -2.37,4.48 -4.48,4.48 -11.65,0 -104.85,0 -116.5,0 -2.11,0 -4.48,-2.36 -4.48,-4.48 0,-17.92 0,-71.69 0,-89.61 z"
       id="aiotUrVLO"
       inkscape:connector-curvature="0" />
    <linearGradient
       id="gradientb576t3zeGf"
       gradientUnits="userSpaceOnUse"
       x1="139.25"
       y1="124.18"
       x2="94.440002"
       y2="61.700001">
      <stop
         style="stop-color: #ffffff;stop-opacity: 1"
         offset="0%"
         id="stop46" />
      <stop
         style="stop-color: #ffffff;stop-opacity: 0"
         offset="100%"
         id="stop48" />
    </linearGradient>
    <path
       d="M 15.34,13.2 H 118.4 V 83.77 H 15.34 Z"
       id="e1NYs5iMNr"
       inkscape:connector-curvature="0" />
    <path
       d="M 14.84,12.51 H 118.9 V 84.46 H 14.84 Z"
       id="a1fEbnJ5Nt"
       inkscape:connector-curvature="0" />
    <path
       d="m 6.38,8.72 c 0,-3.36 1.12,-4.48 4.48,-4.48 11.2,0 100.82,0 112.02,0 3.36,0 4.48,1.12 4.48,4.48 0,8.51 0,76.62 0,85.13 0,3.36 -1.12,4.48 -4.48,4.48 -11.2,0 -100.82,0 -112.02,0 -3.36,0 -4.48,-1.12 -4.48,-4.48 0,-17.02 0,-68.1 0,-85.13 z"
       id="a3dxp4GTM"
       inkscape:connector-curvature="0" />
    <path
       d="M 15.34,13.2 H 118.4 c 0,9.41 0,14.64 0,15.68 C 71.35,30 36.63,50.17 16.46,70.33 16.31,62.71 15.94,43.67 15.34,13.2 Z"
       id="f1OPMdz0fr"
       inkscape:connector-curvature="0" />
    <linearGradient
       id="gradientc3DJ1zZWTY"
       gradientUnits="userSpaceOnUse"
       x1="18.67"
       y1="34.73"
       x2="201.92999"
       y2="30.17">
      <stop
         style="stop-color: #ffffff;stop-opacity: 0"
         offset="0%"
         id="stop55" />
      <stop
         style="stop-color: #ffffff;stop-opacity: 1"
         offset="100%"
         id="stop57" />
    </linearGradient>
    <path
       d="m 20.22,17.87 h 93.31 V 79.11 H 20.22 Z"
       id="b2bDlyq6gJ"
       inkscape:connector-curvature="0" />
    <linearGradient
       id="gradienta1987rokFl"
       gradientUnits="userSpaceOnUse"
       x1="73.199997"
       y1="113.61"
       x2="70.349998"
       y2="41.790001">
      <stop
         style="stop-color: #ffffff;stop-opacity: 1"
         offset="0%"
         id="stop61" />
      <stop
         style="stop-color: #ffffff;stop-opacity: 0"
         offset="100%"
         id="stop63" />
    </linearGradient>
    <path
       d="m 33.09,10.34 c -3.67,-1.91 -5.69,-1.2 -5.15,0.74 0.54,1.94 14.09,24.16 13.98,38.39 -0.12,14.24 -14.28,42.84 -14.77,44.77 -0.49,1.93 1.26,2.39 5.52,0.17 7.53,-3.9 67.74,-35.14 75.27,-39.04 4,-2.08 4.15,-3.97 0.05,-6.1 0,0 -67.41,-35.04 -74.9,-38.93 z"
       id="b5ZxraomlC"
       inkscape:connector-curvature="0" />
    <path
       d="m 33.09,10.34 c -3.67,-1.91 -5.69,-1.2 -5.15,0.74 0.54,1.94 14.09,24.16 13.98,38.39 -0.12,14.24 -14.28,42.84 -14.77,44.77 -0.49,1.93 1.26,2.39 5.52,0.17 7.53,-3.9 67.74,-35.14 75.27,-39.04 4,-2.08 4.15,-3.97 0.05,-6.1 0,0 -67.41,-35.04 -74.9,-38.93 z"
       id="b4ARoLZB2L"
       inkscape:connector-curvature="0" />
    <path
       d="m 41.18,24.08 0.21,0.02 0.21,0.02 0.21,0.02 0.2,0.02 0.19,0.02 0.2,0.02 0.18,0.02 0.18,0.03 0.18,0.02 0.17,0.02 0.17,0.02 0.16,0.02 0.16,0.03 0.14,0.02 0.15,0.02 0.13,0.02 0.13,0.02 0.12,0.02 0.12,0.01 0.1,0.02 0.1,0.01 0.09,0.02 0.09,0.01 0.07,0.01 0.07,0.01 0.05,0.01 0.05,0.01 0.15,0.02 0.14,0.03 0.15,0.02 0.14,0.03 0.14,0.03 0.15,0.02 0.14,0.03 0.15,0.03 0.14,0.03 0.15,0.03 0.14,0.03 0.15,0.03 0.14,0.03 0.15,0.03 0.14,0.03 0.15,0.04 0.14,0.03 0.15,0.03 0.15,0.04 0.14,0.03 0.15,0.04 0.14,0.03 0.15,0.04 0.14,0.03 0.15,0.04 0.14,0.04 0.15,0.04 0.15,0.04 v 5.13 L 48.86,30.5 48.65,30.42 48.44,30.34 48.24,30.26 48.04,30.19 47.84,30.11 47.65,30.05 47.46,29.98 47.28,29.92 47.1,29.87 46.93,29.81 46.76,29.76 46.6,29.71 46.45,29.67 46.3,29.62 46.16,29.58 46.02,29.55 45.89,29.51 45.77,29.48 45.66,29.45 45.55,29.42 45.45,29.39 45.36,29.37 45.28,29.35 45.2,29.33 45.14,29.31 45.08,29.29 45.03,29.28 44.89,29.24 44.74,29.21 44.6,29.18 44.45,29.15 44.31,29.12 44.16,29.09 44.02,29.06 43.87,29.03 43.73,29.01 43.58,28.98 43.44,28.96 43.29,28.93 43.15,28.91 43,28.89 42.86,28.87 42.71,28.85 42.57,28.83 42.42,28.81 42.28,28.8 42.13,28.78 41.99,28.77 41.84,28.75 41.7,28.74 41.55,28.73 41.4,28.72 41.26,28.71 41.11,28.7 40.97,28.69 v 5.81 l 0.64,0.12 0.54,0.09 0.51,0.09 0.48,0.1 0.45,0.11 0.43,0.11 0.4,0.11 0.38,0.11 0.36,0.12 0.34,0.12 0.31,0.12 0.29,0.12 0.28,0.12 0.25,0.12 0.24,0.11 0.22,0.12 0.2,0.11 0.19,0.11 0.18,0.11 0.16,0.1 0.15,0.09 0.14,0.09 0.12,0.09 0.12,0.07 0.11,0.07 0.1,0.07 0.09,0.05 0.08,0.04 0.08,0.04 0.22,0.2 0.2,0.22 0.18,0.22 0.16,0.23 0.16,0.23 0.13,0.24 0.13,0.24 0.11,0.25 0.1,0.24 0.09,0.25 0.08,0.24 0.07,0.25 0.06,0.24 0.06,0.23 0.04,0.23 0.04,0.23 0.04,0.22 0.03,0.21 0.02,0.2 0.03,0.19 0.02,0.17 0.01,0.17 0.02,0.15 0.01,0.14 0.02,0.12 0.02,0.11 0.02,0.09 0.02,0.07 -0.01,0.39 -0.03,0.37 -0.04,0.36 -0.05,0.34 -0.06,0.32 -0.08,0.31 -0.08,0.29 -0.1,0.28 -0.1,0.26 -0.11,0.25 -0.12,0.24 -0.12,0.22 -0.12,0.21 -0.13,0.2 -0.12,0.19 -0.13,0.17 -0.12,0.16 -0.12,0.15 -0.12,0.14 -0.11,0.14 -0.11,0.12 -0.1,0.11 -0.09,0.1 -0.09,0.1 -0.07,0.08 -0.06,0.08 -0.05,0.08 -0.03,0.06 -0.18,0.14 -0.19,0.13 -0.19,0.14 -0.2,0.12 -0.2,0.12 -0.21,0.12 -0.22,0.11 -0.23,0.11 -0.23,0.11 -0.24,0.1 -0.24,0.1 -0.25,0.09 -0.26,0.08 -0.26,0.09 -0.27,0.08 -0.28,0.07 -0.28,0.07 -0.29,0.07 -0.29,0.06 -0.31,0.05 -0.3,0.06 -0.32,0.05 -0.32,0.04 -0.33,0.04 -0.33,0.03 -0.34,0.04 -0.35,0.02 -0.35,0.02 v 6.13 H 37.69 L 37.67,50.94 37.4,50.92 37.14,50.91 36.88,50.89 36.63,50.88 36.38,50.86 36.14,50.83 35.91,50.81 35.68,50.79 35.46,50.76 35.25,50.74 35.04,50.71 34.84,50.69 34.65,50.66 34.46,50.64 34.28,50.61 34.11,50.58 33.95,50.56 33.8,50.53 33.65,50.51 33.52,50.49 33.39,50.47 33.28,50.45 33.17,50.43 33.07,50.41 32.98,50.4 32.9,50.39 32.84,50.38 32.78,50.37 32.61,50.34 32.44,50.3 32.27,50.27 32.1,50.23 31.94,50.19 31.77,50.15 31.6,50.11 31.44,50.07 31.27,50.03 31.1,49.99 30.94,49.95 30.77,49.9 30.61,49.86 30.44,49.81 30.28,49.77 30.11,49.72 29.95,49.67 29.79,49.62 29.62,49.57 29.46,49.52 29.3,49.47 29.13,49.41 28.97,49.36 28.81,49.3 28.65,49.25 28.49,49.19 28.33,49.13 28.17,49.08 v -5.3 l 0.24,0.12 0.25,0.12 0.24,0.12 0.23,0.11 0.24,0.1 0.22,0.1 0.23,0.09 0.21,0.09 0.21,0.09 0.21,0.08 0.2,0.07 0.19,0.07 0.19,0.07 0.18,0.07 0.17,0.06 0.17,0.05 0.16,0.05 0.14,0.05 0.15,0.05 0.13,0.04 0.12,0.04 0.12,0.04 0.11,0.03 0.09,0.03 0.09,0.03 0.08,0.02 0.06,0.03 0.06,0.02 0.17,0.04 0.17,0.04 0.17,0.05 0.17,0.04 0.17,0.03 0.17,0.04 0.18,0.04 0.17,0.03 0.17,0.03 0.17,0.04 0.17,0.03 0.17,0.02 0.18,0.03 0.17,0.03 0.17,0.02 0.18,0.03 0.17,0.02 0.17,0.02 0.17,0.02 0.18,0.01 0.17,0.02 0.18,0.02 0.17,0.01 0.17,0.01 0.18,0.01 0.17,0.01 0.18,0.01 h 0.17 v -6.28 l -0.67,-0.13 -0.5,-0.09 -0.48,-0.1 -0.45,-0.1 -0.43,-0.11 -0.41,-0.11 -0.38,-0.11 -0.36,-0.11 -0.34,-0.12 -0.32,-0.12 -0.3,-0.11 -0.28,-0.12 -0.26,-0.12 -0.25,-0.11 -0.23,-0.12 -0.21,-0.11 -0.2,-0.11 -0.18,-0.1 -0.17,-0.11 -0.16,-0.09 -0.14,-0.1 L 30.83,37.66 30.71,37.57 30.6,37.5 30.49,37.43 30.4,37.37 30.31,37.32 30.23,37.28 30.15,37.25 29.94,37.05 29.75,36.84 29.57,36.63 29.41,36.41 29.26,36.19 29.13,35.96 29.01,35.73 28.9,35.5 28.8,35.27 28.71,35.04 28.64,34.81 28.57,34.59 28.51,34.36 28.46,34.14 28.41,33.93 28.37,33.72 28.34,33.51 28.31,33.32 28.28,33.13 28.26,32.96 28.24,32.79 28.23,32.64 28.21,32.5 28.2,32.37 28.18,32.25 28.16,32.16 28.15,32.07 28.13,32.01 v -0.38 l 0.03,-0.36 0.04,-0.35 0.05,-0.33 0.07,-0.32 0.07,-0.3 0.09,-0.29 0.09,-0.27 0.11,-0.26 0.11,-0.25 0.11,-0.23 0.12,-0.22 0.12,-0.21 0.13,-0.2 0.12,-0.18 0.13,-0.18 0.12,-0.16 0.13,-0.15 0.11,-0.14 0.12,-0.13 0.1,-0.12 0.1,-0.11 0.1,-0.11 0.08,-0.09 0.07,-0.09 0.06,-0.08 0.05,-0.07 0.03,-0.06 0.18,-0.15 0.19,-0.14 0.19,-0.13 0.2,-0.13 0.2,-0.12 0.21,-0.12 0.21,-0.12 0.22,-0.11 0.22,-0.1 0.23,-0.1 0.23,-0.1 0.24,-0.09 0.25,-0.09 0.25,-0.08 0.25,-0.08 0.26,-0.07 0.27,-0.07 0.27,-0.06 0.28,-0.06 0.28,-0.05 0.29,-0.05 0.29,-0.04 0.3,-0.04 0.3,-0.04 0.31,-0.03 0.32,-0.02 0.32,-0.02 0.32,-0.02 0.02,-4.67 h 3.28 v 4.59 z m 0.9,22.06 0.76,-0.22 0.48,-0.23 0.28,-0.13 0.5,-0.57 0.24,-0.61 0.09,-0.52 0.06,-0.31 -0.12,-0.87 -0.26,-0.59 -0.27,-0.37 -0.16,-0.21 -0.48,-0.31 -0.6,-0.25 -0.75,-0.2 -0.88,-0.13 v 5.62 z m -5.99,-16.99 -0.45,0.25 -0.25,0.14 -0.48,0.54 -0.24,0.53 -0.08,0.44 -0.05,0.25 0.11,0.77 0.25,0.55 0.27,0.36 0.16,0.2 0.44,0.3 0.54,0.25 0.64,0.18 0.74,0.12 v -5.28 l -0.93,0.15 z"
       id="c1tI57IxkP"
       inkscape:connector-curvature="0" />
    <path
       d="M 74.39,56.86 V 60.7 H 53.69 V 56.86 Z"
       id="d5jEXPkgL"
       inkscape:connector-curvature="0" />
    <path
       d="m 6.38,8.72 c 0,-3.36 1.12,-4.48 4.48,-4.48 11.2,0 100.82,0 112.02,0 3.36,0 4.48,1.12 4.48,4.48 0,8.51 0,76.62 0,85.13 0,3.36 -1.12,4.48 -4.48,4.48 -11.2,0 -100.82,0 -112.02,0 -3.36,0 -4.48,-1.12 -4.48,-4.48 0,-17.02 0,-68.1 0,-85.13 z"
       id="a4Xzqr7X5"
       inkscape:connector-curvature="0" />
    <radialGradient
       inkscape:collect="always"
       xlink:href="#linearGradient2134"
       id="radialGradient2136"
       cx="320.00003"
       cy="550.49615"
       fx="320.00003"
       fy="550.49615"
       r="280"
       gradientTransform="matrix(0.99992917,0,0,0.17910011,500.02266,469.69893)"
       gradientUnits="userSpaceOnUse" />
    <filter
       inkscape:collect="always"
       style="color-interpolation-filters:sRGB"
       id="filter2154"
       x="-0.068888888"
       width="1.1377778"
       y="-0.465"
       height="1.9299999">
      <feGaussianBlur
         inkscape:collect="always"
         stdDeviation="15.5"
         id="feGaussianBlur2156" />
    </filter>
  </defs>
  <use
     height="100%"
     width="100%"
     y="0"
     x="0"
     style="opacity:1;fill:#666666;fill-opacity:1"
     id="use89"
     xlink:href="#c1zZ2Sf0Hi"
     transform="matrix(4.6535204,0,0,4.6535204,10.797328,-1.3559323)" />
  <ellipse
     style="fill:url(#radialGradient2136);fill-opacity:1;stroke:none;stroke-width:20.12750244;stroke-linejoin:round;stroke-miterlimit:4;stroke-dasharray:none;stroke-opacity:1;filter:url(#filter2154)"
     id="path2120"
     ry="40"
     rx="270"
     cy="568.29272"
     cx="820"
     transform="matrix(0.99149069,0,0,0.99149069,-493.02238,-1.3559323)" />
  <use
     xlink:href="#c1zZ2Sf0Hi"
     id="use91"
     style="opacity:1;fill-opacity:0;stroke:#000000;stroke-width:2.5;stroke-opacity:1"
     x="0"
     y="0"
     width="100%"
     height="100%"
     transform="matrix(4.6535204,0,0,4.6535204,10.799133,-1.3559323)" />
  <use
     height="100%"
     width="100%"
     y="0"
     x="0"
     style="opacity:1;fill:url(#gradientb4xZ3cPKS4)"
     id="use97"
     xlink:href="#b1P55uX7H9"
     transform="matrix(4.6535204,0,0,4.6535204,10.795286,-1.3559323)" />
  <use
     height="100%"
     width="100%"
     y="0"
     x="0"
     style="opacity:1;fill:url(#gradientaaqJx69w7)"
     id="use105"
     xlink:href="#c5iacGxfzN"
     transform="matrix(4.6535204,0,0,4.6535204,10.798885,-1.3559323)" />
  <use
     xlink:href="#aiotUrVLO"
     id="use163"
     style="opacity:1;fill:#ffffff;fill-opacity:1;stroke:#000000;stroke-width:4;stroke-opacity:1"
     x="0"
     y="0"
     width="100%"
     height="100%"
     transform="matrix(4.6572944,0,0,4.4162059,10.542333,20.814742)" />
  <use
     xlink:href="#a1fEbnJ5Nt"
     id="use179"
     style="opacity:1;fill:#000000;fill-opacity:1;stroke:#000000;stroke-width:3.21000004;stroke-opacity:1"
     x="0"
     y="0"
     width="100%"
     height="100%"
     transform="matrix(4.6572944,0,0,4.4162059,10.543403,20.814742)" />
  <g
     id="g1197"
     transform="matrix(0.99229479,0,0,0.94092787,-711.98821,20.814742)">
    <use
       transform="matrix(4.4829509,0,0,4.5035853,731.23156,13.353785)"
       xlink:href="#f1OPMdz0fr"
       id="use193"
       style="opacity:1;fill:url(#gradientc3DJ1zZWTY)"
       x="0"
       y="0"
       width="100%"
       height="100%" />
    <use
       transform="matrix(4.6934585,0,0,4.6934585,728.00237,0)"
       xlink:href="#b2bDlyq6gJ"
       id="use201"
       style="opacity:1;fill:url(#gradienta1987rokFl)"
       x="0"
       y="0"
       width="100%"
       height="100%" />
  </g>
  <use
     transform="matrix(4.6572944,0,0,4.4162059,10.543403,20.814742)"
     height="100%"
     width="100%"
     y="0"
     x="0"
     style="opacity:1;fill:#282828;fill-opacity:0.45490196;stroke:none;stroke-width:3.21000004;stroke-opacity:1"
     id="use896"
     xlink:href="#a1fEbnJ5Nt" />
  <use
     xlink:href="#b2bDlyq6gJ"
     id="use203"
     style="opacity:1;fill-opacity:0;stroke:#000000;stroke-width:1.33000004;stroke-opacity:0"
     x="0"
     y="0"
     width="100%"
     height="100%"
     transform="matrix(4.6572944,0,0,4.4162059,10.544466,20.814742)" />
  <g
     id="g906"
     transform="matrix(1.000811,0,0,0.94900323,-0.26112295,22.101527)">
    <use
       transform="matrix(4.6535204,0,0,4.6535204,10.796833,-1.3559323)"
       xlink:href="#c1tI57IxkP"
       id="use225"
       style="opacity:1;fill:#55a4ff;fill-opacity:1"
       x="0"
       y="0"
       width="100%"
       height="100%" />
    <use
       transform="matrix(4.6535204,0,0,4.6535204,10.796833,-1.3559323)"
       xlink:href="#d5jEXPkgL"
       id="use233"
       style="opacity:1;fill:#55a4ff;fill-opacity:1"
       x="0"
       y="0"
       width="100%"
       height="100%" />
  </g>
</svg>
