<?xml version="1.0" encoding="UTF-8" standalone="no"?>
<!-- Generator: Gravit.io -->

<svg
   xmlns:dc="http://purl.org/dc/elements/1.1/"
   xmlns:cc="http://creativecommons.org/ns#"
   xmlns:rdf="http://www.w3.org/1999/02/22-rdf-syntax-ns#"
   xmlns:svg="http://www.w3.org/2000/svg"
   xmlns="http://www.w3.org/2000/svg"
   xmlns:sodipodi="http://sodipodi.sourceforge.net/DTD/sodipodi-0.dtd"
   xmlns:inkscape="http://www.inkscape.org/namespaces/inkscape"
   style="isolation:isolate"
   viewBox="0 0 256 256"
   width="256"
   height="256"
   version="1.1"
   id="svg36"
   sodipodi:docname="roxterm.svg"
   inkscape:version="0.92.4 5da689c313, 2019-01-14">
  <metadata
     id="metadata40">
    <rdf:RDF>
      <cc:Work
         rdf:about="">
        <dc:format>image/svg+xml</dc:format>
        <dc:type
           rdf:resource="http://purl.org/dc/dcmitype/StillImage" />
      </cc:Work>
    </rdf:RDF>
  </metadata>
  <sodipodi:namedview
     pagecolor="#ffffff"
     bordercolor="#666666"
     borderopacity="1"
     objecttolerance="10"
     gridtolerance="10"
     guidetolerance="10"
     inkscape:pageopacity="0"
     inkscape:pageshadow="2"
     inkscape:window-width="2560"
     inkscape:window-height="1316"
     id="namedview38"
     showgrid="false"
     inkscape:zoom="0.921875"
     inkscape:cx="130.16949"
     inkscape:cy="128"
     inkscape:window-x="0"
     inkscape:window-y="50"
     inkscape:window-maximized="1"
     inkscape:current-layer="svg36" />
  <defs
     id="defs5">
    <clipPath
       id="_clipPath_5pIpBvbJQDQhO5A0Lgo3SIWl1vycJcIy">
      <rect
         width="256"
         height="256"
         id="rect2" />
    </clipPath>
    <defs
       id="defs18">
      <filter
         color-interpolation-filters="sRGB"
         filterUnits="objectBoundingBox"
         height="400%"
         width="400%"
         y="-200%"
         x="-200%"
         id="1l5p47SUtTO36pCodx7QbE50f4DjPM3l">
        <feGaussianBlur
           id="feGaussianBlur7"
           stdDeviation="3.4348872502712227"
           in="SourceGraphic" />
        <feOffset
           id="feOffset9"
           result="pf_100_offsetBlur"
           dy="16"
           dx="8" />
        <feFlood
           id="feFlood11"
           flood-opacity="0.4"
           flood-color="#000000" />
        <feComposite
           id="feComposite13"
           result="pf_100_dropShadow"
           operator="in"
           in2="pf_100_offsetBlur" />
        <feBlend
           id="feBlend15"
           mode="normal"
           in2="pf_100_dropShadow"
           in="SourceGraphic" />
      </filter>
    </defs>
  </defs>
  <g
     style="filter:url(#1l5p47SUtTO36pCodx7QbE50f4DjPM3l)"
     id="g24">
    <path
       inkscape:connector-curvature="0"
       id="path20"
       style="fill:#404040;stroke:none;stroke-miterlimit:10"
       d="m 20,16 h 208 c 6.623,0 12,5.377 12,12 v 184 c 0,6.623 -5.377,12 -12,12 H 20 C 13.377,224 8,218.623 8,212 V 28 C 8,21.377 13.377,16 20,16 Z" />
    <path
       inkscape:connector-curvature="0"
       id="path22"
       style="fill:none;stroke:#000000;stroke-width:4;stroke-linecap:square;stroke-miterlimit:2"
       d="m 20,16 h 208 c 6.623,0 12,5.377 12,12 v 184 c 0,6.623 -5.377,12 -12,12 H 20 C 13.377,224 8,218.623 8,212 V 28 C 8,21.377 13.377,16 20,16 Z" />
  </g>
  <rect
     style="fill:#55a4ff;fill-opacity:0.94117647;stroke-width:1.07675683"
     id="rect26"
     height="45"
     width="24"
     y="61.000999"
     x="54" />
  <g
     aria-label="$"
     style="font-style:normal;font-variant:normal;font-weight:bold;font-stretch:normal;font-size:48px;font-family:'DejaVu Sans';-inkscape-font-specification:'DejaVu Sans Bold';fill:#ffffff;stroke:none"
     id="text28">
    <path
       d="M 36.632812,104.88269 H 32.835937 L 32.8125,97.828003 q -2.929688,-0.117188 -5.671875,-0.65625 -2.742188,-0.539063 -5.34375,-1.5 v -6.140625 q 2.695312,1.382812 5.4375,2.132812 Q 30,92.390503 32.835937,92.484253 V 85.19519 L 32.0625,85.054565 Q 26.460937,84.07019 24.09375,81.960815 21.75,79.85144 21.75,75.890503 q 0,-4.195313 2.859375,-6.539063 2.882812,-2.367187 8.203125,-2.578125 l 0.02344,-5.414062 h 3.796875 v 5.320312 q 2.34375,0.1875 4.6875,0.585938 2.34375,0.398437 4.710938,1.03125 v 5.953125 Q 43.6875,73.265503 41.34375,72.72644 39,72.16394 36.632812,72.046753 v 6.726562 l 0.75,0.140625 q 5.953125,0.9375 8.34375,3.140625 2.414063,2.179688 2.414063,6.46875 0,4.3125 -2.859375,6.632813 -2.859375,2.296875 -8.648438,2.625 z M 32.835937,78.234253 v -6.117188 q -1.664062,0.09375 -2.671875,0.914063 -0.984375,0.796875 -0.984375,2.039062 0,1.382813 0.914063,2.179688 0.914062,0.773437 2.742187,0.984375 z m 3.796875,7.640625 v 6.515625 q 2.039063,-0.02344 3.046875,-0.796875 1.03125,-0.773438 1.03125,-2.320313 0,-1.59375 -0.9375,-2.367187 -0.9375,-0.796875 -3.140625,-1.03125 z"
       style="font-style:normal;font-variant:normal;font-weight:bold;font-stretch:normal;font-size:48px;font-family:'DejaVu Sans';-inkscape-font-specification:'DejaVu Sans Bold';fill:#ffffff;stroke:none"
       id="path868" />
  </g>
  <path
     style="vector-effect:non-scaling-stroke;fill:#d0d0d0;fill-rule:evenodd;stroke:#000000;stroke-width:4;stroke-linecap:square;stroke-linejoin:miter;stroke-miterlimit:3"
     inkscape:connector-curvature="0"
     id="path32"
     stroke-miterlimit="3"
     d="m 228,16 c 6.623,0 12,5.377 12,12 V 48 H 8 V 28 28 C 8,21.377 13.377,16 20,16 Z" />
</svg>
