/* XPM */
static char *roxterm[] = {
/* columns rows colors chars-per-pixel */
"32 32 86 1",
"  c #010101",
". c #0C0C0C",
"X c #0F130A",
"o c #121212",
"O c #191A17",
"+ c #1C1C1C",
"@ c #1A250A",
"# c #253212",
"$ c #2B341F",
"% c #232323",
"& c #2A2C27",
"* c #2B2B2B",
"= c #2D3128",
"- c #353A2E",
"; c #343434",
": c #373836",
"> c #3B3E37",
", c #3B3B3B",
"< c #2F470C",
"1 c #2E4113",
"2 c #304316",
"3 c #37550E",
"4 c #394A22",
"5 c #3B4829",
"6 c #3F5224",
"7 c #415C1B",
"8 c #405225",
"9 c #4C5E32",
"0 c #456714",
"q c #47661B",
"w c #4E701E",
"e c #527F12",
"r c #57683F",
"t c #537523",
"y c #454545",
"u c #474748",
"i c #494B46",
"p c #4A4A4A",
"a c #4F5050",
"s c #545454",
"d c #5B5B5B",
"f c #576840",
"g c #586940",
"h c #636363",
"j c #6D6D6D",
"k c #727272",
"l c #777878",
"z c #7E7E7E",
"x c #58831C",
"c c #66981E",
"v c #618F20",
"b c #6AA11B",
"n c #6FAF15",
"m c #7ABE17",
"M c #74AE21",
"N c #7CC218",
"B c #87D31B",
"V c #88D717",
"C c #8EDE1C",
"Z c #8FE318",
"A c #91E41B",
"S c #94EB18",
"D c #99F319",
"F c #9EFB18",
"G c #A0FF19",
"H c #858585",
"J c #8C8C8C",
"K c #939393",
"L c #9A9A9A",
"P c #A3A3A3",
"I c #ACACAC",
"U c #B4B4B4",
"Y c #BBBBBB",
"T c #BFBFC0",
"R c #C3C3C3",
"E c #C7C7C8",
"W c #CBCBCB",
"Q c #CFD0D0",
"! c #D5D5D5",
"~ c #DADADA",
"^ c #DFDFE0",
"/ c #E4E4E4",
"( c #EDEDED",
") c #F3F3F3",
"_ c #FEFEFE",
"` c None",
/* pixels */
"R o+++++++++%+%+%+%%%%%%%%%%%% H",
"zj))))))))))))))))))))))()))))U ",
"zL_____)_))_))))))))))))))))))! ",
"zL)YyppsddhhjkllzzHJJKLLLPPIW)! ",
"zL_Y  .o+q%&*;,yuppddhhjklzHE(~ ",
"HP)Y  .o2A2**;,,ypssdhhjklzHW(~ ",
"zP_Y  XnSGDB*;:,yppsdhhjkllHW(/ ",
"zP)R  3FmAwc*;:yyusssspy;*%+I(/ ",
"zP)R  <FZDx2&;;,,y,%..      I(/ ",
"zI)W  .xVFFS5;;*+.          U(/ ",
"HI)W  @##AbGt%.             U(/ ",
"zI)W .0ZNDZD1.....o....o.o. U(/ ",
"zI)W +&vMDc7+O+++++++++++++.Y(/ ",
"zU)! &*;:A&&=86668*&****;*&oY(( ",
"zU)!.;:::9::9AAAAA,,,,,,:,,oY(/ ",
"zU(!.yyyyyyyirffffuyuuupuuy+R(( ",
"HU)~.ssssssssssssssssdsdsds+E(( ",
"zU)~.hdhhdhhhhhhhhhhhhhhhhh%R(( ",
"zY)~.jjjjjjkjkkkkklklkkkllk&R() ",
"zY(/ ,,,,,,,,,,,,,,,,,,,,,,OR() ",
"zY((JKJKKKKKLKLLLLLLLLLLLLLL/() ",
"HY()(()(()()(()(()()()))))))))) ",
"HY(((((((/((/(((((((((((((((()) ",
"zP(((/((((((((((((()()()()))))/ ",
"J&kHHHHHHHJHJHJJJJJJJJJJJJJJJHyd",
"`LLLLLLLLLL.ussdhhhh+LLLLLLLLLL`",
"```````````oJIYYYYYU:)``````````",
"````````(klpWWWWWWWWkyk()```````",
"````___UuKE~!~~~!~~~~WPhl___````",
"__)~WIJy,uuuuuiuuuuuuuuy,HPY!()_",
"_/WYPJzhu,;*&%+++%%%*;,ydkHLIR~)",
"```)(/!WTYIIPPPLLLLPPIUYR!//)_``"
};
