/* XPM */
static char *roxterm[] = {
/* columns rows colors chars-per-pixel */
"32 32 92 1",
"  c #026D025D024A",
". c #0C000BF80BF0",
"X c #12A612981288",
"o c #182417501662",
"O c #0FB7159A1CFD",
"+ c #1B371B1B1AFA",
"@ c #127F1A3C2347",
"# c #1AED1FA124F9",
"$ c #191922602D9A",
"% c #18B526DB36FB",
"& c #1D2627D433C4",
"* c #23742368235E",
"= c #204A25BF2BC5",
"- c #2BB12BD92C07",
"; c #2E392F223035",
": c #2F3936C93FB9",
"> c #33A633BF33DE",
", c #3801375E36A8",
"< c #335638D33F15",
"1 c #3A5C3A6B3A7D",
"2 c #208A2FA94158",
"3 c #2B6B36B44364",
"4 c #2EB93AF048D4",
"5 c #319B391D41C2",
"6 c #38713E554534",
"7 c #3E7A460A4EBF",
"8 c #37CE4D7D64DB",
"9 c #3BA155E373C0",
"0 c #369B56867B07",
"q c #44F744EE44E7",
"w c #497549754976",
"e c #4A4A4E8D5366",
"r c #42924D605988",
"t c #4BFD50865594",
"y c #44954FDC5C9A",
"u c #53EA53D453BD",
"i c #5C055C055C07",
"p c #425250546082",
"a c #3FFE55F46ECB",
"s c #44DE5B1572A9",
"d c #634663466347",
"f c #6D9C6D9C6D9C",
"g c #74BE74BE74BF",
"h c #7B3F7B3F7B40",
"j c #3AE25BD1803B",
"k c #461861FD810F",
"l c #4F1F6686814B",
"z c #408E62CA8977",
"x c #5A286CA7811D",
"c c #5C14706A86D6",
"v c #427E6C319BBA",
"b c #4A1D70CD9B3A",
"n c #51F279A0A541",
"m c #54657E61AD47",
"M c #4539787BB344",
"N c #570D8817BEED",
"B c #4B56843DC4C1",
"V c #595D8C43C554",
"C c #5C859262CF45",
"Z c #5AFA95B8D837",
"A c #5BA29A03DFEF",
"S c #622E9359CB5B",
"D c #69369784CA6F",
"F c #6220984AD6AC",
"G c #6D7E9FFFD745",
"H c #67159F66DEBE",
"J c #6DD9A0A7D835",
"K c #57BB9C15E77E",
"L c #603BA017E832",
"P c #5E19A136EC53",
"I c #6500A0FAE3AA",
"U c #6372A3EDEC91",
"Y c #6D94ADF9F41C",
"T c #6480AC14FBF8",
"R c #706CAEA7F4F9",
"E c #84EA84EA84EC",
"W c #8A388A388A39",
"Q c #95E995E995EC",
"! c #9D069D069D06",
"~ c #A353A353A353",
"^ c #AC84AC86AC86",
"/ c #B403B403B403",
"( c #BC2BBC2CBC34",
") c #C4EAC4EBC4F7",
"_ c #CD12CD12CD1A",
"` c #D437D437D43D",
"' c #DCE1DCE2DCE5",
"] c #E655E655E660",
"[ c #EE03EE03EE03",
"{ c #F417F417F417",
"} c #FAB4FAB5FAB4",
"| c None",
/* pixels */
"||||||||||||||||||||||||||||||||",
"||||||||||||||||||||||||||||||||",
"|1hEEEEEEEEEEEEEEEEWWEWEWWWWWEi.",
" W}}}}}}}}}}}}}}}{}}{{}}}{{{{})*",
".Q}'//((((())))))_)_`````'`']{)-",
".!}/*+#*-,11qweuuidffgghEWWQ)})>",
".Q}^. ..@z4*->11qwuuiddfgghW){_>",
".!}^X .:vUVs>>11qwuuiiffghhW)}_-",
".!}^X @BPLVm<>1qqwuuididiuuu/{)>",
".!}/X %KAZ9:->,1qwwq>-+X.  .Q{_>",
".!}/o OMTTIn1>11>#X        .Q{_>",
"X~}/o .$0KUYs-@.            !}_>",
".~}/o.&09CFY8X..........X...!{_,",
"X!}(+X5VHRLb*oo+o++++++++++X!{_>",
"X~}(@*;6yFs--:5555---------+!{`>",
".~}(*>116sq,rDGGJDr,,,,111,*~}_,",
"X~}(-1qqqqqqexcxcxtwwwwwwww-~{`,",
"X~}(-wuuuuuuuuuuuuuuuiuiuuu-~}`,",
"X~})-ididddddddddddfddfdddd,~{`,",
"X~})>dggfggggggggggggggghhg1~}`,",
"o~})-quuuuuuuuuuuuuuuuuuuuu-~}`1",
"X~}'gdfdfdffffffgfffffffffff)}`1",
"X^{[[[[[[[[[[[{[[{{{{{{{{{}{{{',",
"X~{[[[[][[[[[[[[[[[[[[[{[{[{[}`1",
"X!}[[{[[{{[{{{{{{{{{{{{}}{}{}}`;",
"|wQ!!!!!!!!!!!!!!!!!!~!~!~~~~!fX",
"|||||||||||+qwiidddd>|||||||||||",
"|||||||||||,E/(((()/d|||||||||||",
"|||||||||||g)```````W|||||||||||",
"||||||||d!/)''''''''`/~h||||||||",
"||||||||qddddiddiddddddu*|||||||",
"||||||||||||||||||||||||||||||||"
};
